<svg width="306" height="274" viewBox="0 0 306 274" fill="none" xmlns="http://www.w3.org/2000/svg">
<path fill-rule="evenodd" clip-rule="evenodd" d="M135.784 241.758C118.838 241.758 104.453 253.725 90.8702 263.858C82.5359 270.076 72.1978 273.758 61 273.758C33.3858 273.758 11 251.372 11 223.758C11 196.143 33.3858 173.758 61 173.758C72.7646 173.758 83.5802 177.821 92.1201 184.62C106.382 195.976 121.77 209.758 140 209.758V209.758C158.23 209.758 173.618 195.976 187.88 184.62C196.42 177.821 207.235 173.758 219 173.758C246.614 173.758 269 196.143 269 223.758C269 251.372 246.614 273.758 219 273.758C207.802 273.758 197.464 270.076 189.13 263.858C175.547 253.725 161.162 241.758 144.216 241.758H135.784Z" fill="#4461F2"/>
<rect y="138.758" width="306" height="28" rx="10" fill="#4461F2"/>
<path d="M101 24.7575C145 64.7575 233 -47.2425 229 24.7575C225 96.7575 249 152.758 249 152.758L47 140.758C47 140.758 57.0002 -15.2425 101 24.7575Z" fill="#4461F2"/>
</svg>
